<!DOCTYPE svg PUBLIC "-//W3C//DTD SVG 1.1//EN" "http://www.w3.org/Graphics/SVG/1.1/DTD/svg11.dtd">
<!-- Uploaded to: SVG Repo, www.svgrepo.com, Transformed by: SVG Repo Mixer Tools -->
<svg width="193px" height="193px" viewBox="-4.56 -4.56 33.12 33.12" xmlns="http://www.w3.org/2000/svg" fill="#000000" stroke="#000000">
<g id="SVGRepo_bgCarrier" stroke-width="0">
<rect x="-4.56" y="-4.56" width="33.12" height="33.12" rx="16.56" fill="#d4deba" strokewidth="0"/>
</g>
<g id="SVGRepo_tracerCarrier" stroke-linecap="round" stroke-linejoin="round"/>
<g id="SVGRepo_iconCarrier"> <path fill="none" stroke="#899a37" stroke-width="2" d="M19,7 C19,7 14,14 6.5,14 C4.5,14 1,15 1,19 L1,23 L12,23 L12,19 C12,16.5 15,18 19,11 L17.5,9.5 M3,5 L3,2 L23,2 L23,16 L20,16 M11,1 L15,1 L15,3 L11,3 L11,1 Z M6.5,14 C8.43299662,14 10,12.4329966 10,10.5 C10,8.56700338 8.43299662,7 6.5,7 C4.56700338,7 3,8.56700338 3,10.5 C3,12.4329966 4.56700338,14 6.5,14 Z"/> </g>
</svg>